<?xml version="1.0" encoding="UTF-8" standalone="no"?>
<!DOCTYPE svg PUBLIC "-//W3C//DTD SVG 1.1//EN"
 "http://www.w3.org/Graphics/SVG/1.1/DTD/svg11.dtd">
<!-- Generated by graphviz version 2.43.0 (0)
 -->
<!-- Title: hw tree Pages: 1 -->
<svg width="4582pt" height="897pt"
 viewBox="0.00 0.00 4582.00 897.00" xmlns="http://www.w3.org/2000/svg" xmlns:xlink="http://www.w3.org/1999/xlink">
<g id="graph0" class="graph" transform="scale(1 1) rotate(0) translate(4 893)">
<title>hw tree</title>
<polygon fill="white" stroke="transparent" points="-4,4 -4,-893 4578,-893 4578,4 -4,4"/>
<!-- Idle -->
<g id="node1" class="node">
<title>Idle</title>
<polygon fill="lightgrey" stroke="lightgrey" points="2642.5,-889 2264.5,-889 2264.5,-821 2642.5,-821 2642.5,-889"/>
<text text-anchor="middle" x="2453.5" y="-873.8" font-family="Times,serif" font-size="14.00"> No&#45;issue cycles</text>
<text text-anchor="middle" x="2453.5" y="-858.8" font-family="Times,serif" font-size="14.00">79.00% (lowest possible: 87% for 28 active warps)</text>
<text text-anchor="middle" x="2453.5" y="-843.8" font-family="Times,serif" font-size="14.00">Util/SOL: 40.20% (L1)</text>
<text text-anchor="middle" x="2453.5" y="-828.8" font-family="Times,serif" font-size="14.00">Issue IPC: 0.84</text>
</g>
<!-- warp_cant_issue_long_scoreboard -->
<g id="node2" class="node">
<title>warp_cant_issue_long_scoreboard</title>
<polygon fill="lightgrey" stroke="lightgrey" points="1322.5,-784 1122.5,-784 1122.5,-731 1322.5,-731 1322.5,-784"/>
<text text-anchor="middle" x="1222.5" y="-768.8" font-family="Times,serif" font-size="14.00"> Delay due to global</text>
<text text-anchor="middle" x="1222.5" y="-753.8" font-family="Times,serif" font-size="14.00">memory accesses</text>
<text text-anchor="middle" x="1222.5" y="-738.8" font-family="Times,serif" font-size="14.00">63.28% of no&#45;issue cycles</text>
</g>
<!-- Idle&#45;&gt;warp_cant_issue_long_scoreboard -->
<g id="edge1" class="edge">
<title>Idle&#45;&gt;warp_cant_issue_long_scoreboard</title>
<path fill="none" stroke="black" d="M2264.19,-839.31C2003.67,-819.1 1543.03,-783.37 1332.74,-767.05"/>
<polygon fill="black" stroke="black" points="1332.85,-763.55 1322.61,-766.27 1332.31,-770.53 1332.85,-763.55"/>
</g>
<!-- warp_cant_issue_barrier -->
<g id="node3" class="node">
<title>warp_cant_issue_barrier</title>
<polygon fill="lightgrey" stroke="lightgrey" points="2215.5,-784 2015.5,-784 2015.5,-731 2215.5,-731 2215.5,-784"/>
<text text-anchor="middle" x="2115.5" y="-768.8" font-family="Times,serif" font-size="14.00"> CTA (Block) waiting at</text>
<text text-anchor="middle" x="2115.5" y="-753.8" font-family="Times,serif" font-size="14.00">barriers</text>
<text text-anchor="middle" x="2115.5" y="-738.8" font-family="Times,serif" font-size="14.00">25.85% of no&#45;issue cycles</text>
</g>
<!-- Idle&#45;&gt;warp_cant_issue_barrier -->
<g id="edge2" class="edge">
<title>Idle&#45;&gt;warp_cant_issue_barrier</title>
<path fill="none" stroke="black" d="M2336.23,-820.87C2297.03,-809.79 2253.71,-797.55 2215.91,-786.87"/>
<polygon fill="black" stroke="black" points="2216.49,-783.4 2205.91,-784.05 2214.58,-790.13 2216.49,-783.4"/>
</g>
<!-- warp_cant_issue_wait -->
<g id="node4" class="node">
<title>warp_cant_issue_wait</title>
<polygon fill="lightgrey" stroke="lightgrey" points="3539,-784 3348,-784 3348,-731 3539,-731 3539,-784"/>
<text text-anchor="middle" x="3443.5" y="-768.8" font-family="Times,serif" font-size="14.00"> Delay due to dependent</text>
<text text-anchor="middle" x="3443.5" y="-753.8" font-family="Times,serif" font-size="14.00">instructions/issue rate</text>
<text text-anchor="middle" x="3443.5" y="-738.8" font-family="Times,serif" font-size="14.00">8.49% of no&#45;issue cycles</text>
</g>
<!-- Idle&#45;&gt;warp_cant_issue_wait -->
<g id="edge3" class="edge">
<title>Idle&#45;&gt;warp_cant_issue_wait</title>
<path fill="none" stroke="black" d="M2642.63,-835.76C2848.91,-815.86 3171.75,-784.71 3337.49,-768.73"/>
<polygon fill="black" stroke="black" points="3338.08,-772.19 3347.69,-767.74 3337.4,-765.22 3338.08,-772.19"/>
</g>
<!-- warp_cant_issue_no_inst -->
<g id="node5" class="node">
<title>warp_cant_issue_no_inst</title>
<polygon fill="lightgrey" stroke="lightgrey" points="4199,-776.5 4008,-776.5 4008,-738.5 4199,-738.5 4199,-776.5"/>
<text text-anchor="middle" x="4103.5" y="-761.3" font-family="Times,serif" font-size="14.00"> No Instructions</text>
<text text-anchor="middle" x="4103.5" y="-746.3" font-family="Times,serif" font-size="14.00">0.72% of no&#45;issue cycles</text>
</g>
<!-- Idle&#45;&gt;warp_cant_issue_no_inst -->
<g id="edge4" class="edge">
<title>Idle&#45;&gt;warp_cant_issue_no_inst</title>
<path fill="none" stroke="black" d="M2642.78,-843.04C2991.28,-822.87 3723.81,-780.48 3997.43,-764.64"/>
<polygon fill="black" stroke="black" points="3997.97,-768.11 4007.75,-764.04 3997.57,-761.13 3997.97,-768.11"/>
</g>
<!-- source_code_for_warp_cant_issue_long_scoreboard_0 -->
<g id="node6" class="node">
<title>source_code_for_warp_cant_issue_long_scoreboard_0</title>
<polygon fill="bisque" stroke="bisque" points="953,-694 0,-694 0,-521 953,-521 953,-694"/>
<text text-anchor="start" x="8" y="-678.8" font-family="Times,serif" font-size="14.00">kernel_gpu_cuda_2.cu:</text>
<text text-anchor="start" x="8" y="-663.8" font-family="Times,serif" font-size="14.00">37 if((knodesD[lastKnodeD[bid]].keys[thid] &lt;= endD[bid]) &amp;&amp; (knodesD[lastKnodeD[bid]].keys[thid+1] &gt; endD[bid])){ &#160;&#160;&#160;24.32%</text>
<text text-anchor="start" x="8" y="-648.8" font-family="Times,serif" font-size="14.00">62 if(knodesD[lastKnodeD[bid]].keys[thid] == endD[bid]){ &#160;&#160;&#160;24.17%</text>
<text text-anchor="start" x="8" y="-633.8" font-family="Times,serif" font-size="14.00">56 if(knodesD[currKnodeD[bid]].keys[thid] == startD[bid]){ &#160;&#160;&#160;17.44%</text>
<text text-anchor="start" x="8" y="-618.8" font-family="Times,serif" font-size="14.00">22 int thid = threadIdx.x; &#160;&#160;&#160;14.01%</text>
<text text-anchor="start" x="8" y="-603.8" font-family="Times,serif" font-size="14.00">29 if((knodesD[currKnodeD[bid]].keys[thid] &lt;= startD[bid]) &amp;&amp; (knodesD[currKnodeD[bid]].keys[thid+1] &gt; startD[bid])){ &#160;&#160;&#160;8.85%</text>
<text text-anchor="start" x="8" y="-588.8" font-family="Times,serif" font-size="14.00">52 __syncthreads(); &#160;&#160;&#160;2.92%</text>
<text text-anchor="start" x="8" y="-573.8" font-family="Times,serif" font-size="14.00">63 ReclenD[bid] = knodesD[lastKnodeD[bid]].indices[thid] &#45; RecstartD[bid]+1; &#160;&#160;&#160;2.64%</text>
<text text-anchor="start" x="8" y="-558.8" font-family="Times,serif" font-size="14.00">57 RecstartD[bid] = knodesD[currKnodeD[bid]].indices[thid]; &#160;&#160;&#160;2.44%</text>
<text text-anchor="start" x="8" y="-543.8" font-family="Times,serif" font-size="14.00">41 if(knodesD[lastKnodeD[bid]].indices[thid] &lt; knodes_elem){ &#160;&#160;&#160;1.80%</text>
<text text-anchor="start" x="8" y="-528.8" font-family="Times,serif" font-size="14.00">33 if(knodesD[currKnodeD[bid]].indices[thid] &lt; knodes_elem){ &#160;&#160;&#160;1.41%</text>
</g>
<!-- warp_cant_issue_long_scoreboard&#45;&gt;source_code_for_warp_cant_issue_long_scoreboard_0 -->
<g id="edge5" class="edge">
<title>warp_cant_issue_long_scoreboard&#45;&gt;source_code_for_warp_cant_issue_long_scoreboard_0</title>
<path fill="none" stroke="black" d="M1122.28,-736.62C1067.12,-725.67 994.4,-711.25 917.7,-696.03"/>
<polygon fill="black" stroke="black" points="918.33,-692.59 907.84,-694.07 916.96,-699.45 918.33,-692.59"/>
</g>
<!-- avg_latency -->
<g id="node7" class="node">
<title>avg_latency</title>
<polygon fill="lightsalmon" stroke="lightsalmon" points="1213.5,-641.5 971.5,-641.5 971.5,-573.5 1213.5,-573.5 1213.5,-641.5"/>
<text text-anchor="middle" x="1092.5" y="-626.3" font-family="Times,serif" font-size="14.00"> Latency distribution per</text>
<text text-anchor="middle" x="1092.5" y="-611.3" font-family="Times,serif" font-size="14.00">request</text>
<text text-anchor="middle" x="1092.5" y="-596.3" font-family="Times,serif" font-size="14.00">Average load global latency: 0</text>
<text text-anchor="middle" x="1092.5" y="-581.3" font-family="Times,serif" font-size="14.00">Average load generic latency: 0</text>
</g>
<!-- warp_cant_issue_long_scoreboard&#45;&gt;avg_latency -->
<g id="edge6" class="edge">
<title>warp_cant_issue_long_scoreboard&#45;&gt;avg_latency</title>
<path fill="none" stroke="black" d="M1199.86,-730.72C1180.14,-708.28 1151.23,-675.36 1128.37,-649.34"/>
<polygon fill="black" stroke="black" points="1130.72,-646.7 1121.49,-641.5 1125.46,-651.32 1130.72,-646.7"/>
</g>
<!-- occupancy -->
<g id="node8" class="node">
<title>occupancy</title>
<polygon fill="lightgrey" stroke="lightgrey" points="1473.5,-664 1231.5,-664 1231.5,-551 1473.5,-551 1473.5,-664"/>
<text text-anchor="middle" x="1352.5" y="-648.8" font-family="Times,serif" font-size="14.00"> occupancy</text>
<text text-anchor="middle" x="1352.5" y="-633.8" font-family="Times,serif" font-size="14.00">Max active warps: 32</text>
<text text-anchor="middle" x="1352.5" y="-618.8" font-family="Times,serif" font-size="14.00">Theoretical active warps: 32.00</text>
<text text-anchor="middle" x="1352.5" y="-603.8" font-family="Times,serif" font-size="14.00">Achieved active warps: 28.54</text>
<text text-anchor="middle" x="1352.5" y="-588.8" font-family="Times,serif" font-size="14.00">Register usage per thread: 23</text>
<text text-anchor="middle" x="1352.5" y="-573.8" font-family="Times,serif" font-size="14.00">Blocksize: 256</text>
<text text-anchor="middle" x="1352.5" y="-558.8" font-family="Times,serif" font-size="14.00">Limited by: Register</text>
</g>
<!-- warp_cant_issue_long_scoreboard&#45;&gt;occupancy -->
<g id="edge7" class="edge">
<title>warp_cant_issue_long_scoreboard&#45;&gt;occupancy</title>
<path fill="none" stroke="black" d="M1245.14,-730.72C1259.53,-714.35 1278.81,-692.39 1297.07,-671.61"/>
<polygon fill="black" stroke="black" points="1299.76,-673.84 1303.73,-664.02 1294.51,-669.22 1299.76,-673.84"/>
</g>
<!-- source_code_for_warp_cant_issue_barrier_0 -->
<g id="node9" class="node">
<title>source_code_for_warp_cant_issue_barrier_0</title>
<polygon fill="bisque" stroke="bisque" points="1999,-641.5 1492,-641.5 1492,-573.5 1999,-573.5 1999,-641.5"/>
<text text-anchor="start" x="1500" y="-626.3" font-family="Times,serif" font-size="14.00">kernel_gpu_cuda_2.cu:</text>
<text text-anchor="start" x="1500" y="-611.3" font-family="Times,serif" font-size="14.00">62 if(knodesD[lastKnodeD[bid]].keys[thid] == endD[bid]){ &#160;&#160;&#160;47.98%</text>
<text text-anchor="start" x="1500" y="-596.3" font-family="Times,serif" font-size="14.00">49 currKnodeD[bid] = offsetD[bid]; &#160;&#160;&#160;38.74%</text>
<text text-anchor="start" x="1500" y="-581.3" font-family="Times,serif" font-size="14.00">52 __syncthreads(); &#160;&#160;&#160;13.28%</text>
</g>
<!-- warp_cant_issue_barrier&#45;&gt;source_code_for_warp_cant_issue_barrier_0 -->
<g id="edge8" class="edge">
<title>warp_cant_issue_barrier&#45;&gt;source_code_for_warp_cant_issue_barrier_0</title>
<path fill="none" stroke="black" d="M2051.47,-730.89C1992.53,-707.31 1904.41,-672.06 1837.85,-645.44"/>
<polygon fill="black" stroke="black" points="1838.78,-642.04 1828.19,-641.58 1836.18,-648.54 1838.78,-642.04"/>
</g>
<!-- suggestion_for_warp_cant_issue_barrier_1 -->
<g id="node10" class="node">
<title>suggestion_for_warp_cant_issue_barrier_1</title>
<polygon fill="mediumseagreen" stroke="mediumseagreen" points="2214,-679 2017,-679 2017,-536 2214,-536 2214,-679"/>
<text text-anchor="middle" x="2115.5" y="-663.8" font-family="Times,serif" font-size="14.00"> The number of threads</text>
<text text-anchor="middle" x="2115.5" y="-648.8" font-family="Times,serif" font-size="14.00">per block is about 256,</text>
<text text-anchor="middle" x="2115.5" y="-633.8" font-family="Times,serif" font-size="14.00">but only 32 needed for a</text>
<text text-anchor="middle" x="2115.5" y="-618.8" font-family="Times,serif" font-size="14.00">warp. Splitting them into</text>
<text text-anchor="middle" x="2115.5" y="-603.8" font-family="Times,serif" font-size="14.00">multiple CTAs may help</text>
<text text-anchor="middle" x="2115.5" y="-588.8" font-family="Times,serif" font-size="14.00">reduce barrier cycles</text>
<text text-anchor="middle" x="2115.5" y="-573.8" font-family="Times,serif" font-size="14.00">(but may affect intra&#45;CTA</text>
<text text-anchor="middle" x="2115.5" y="-558.8" font-family="Times,serif" font-size="14.00">sharing via shared</text>
<text text-anchor="middle" x="2115.5" y="-543.8" font-family="Times,serif" font-size="14.00">memory).</text>
</g>
<!-- warp_cant_issue_barrier&#45;&gt;suggestion_for_warp_cant_issue_barrier_1 -->
<g id="edge9" class="edge">
<title>warp_cant_issue_barrier&#45;&gt;suggestion_for_warp_cant_issue_barrier_1</title>
<path fill="none" stroke="black" d="M2115.5,-730.72C2115.5,-719.01 2115.5,-704.45 2115.5,-689.51"/>
<polygon fill="black" stroke="black" points="2119,-689.13 2115.5,-679.13 2112,-689.13 2119,-689.13"/>
</g>
<!-- source_code_for_warp_cant_issue_wait_0 -->
<g id="node11" class="node">
<title>source_code_for_warp_cant_issue_wait_0</title>
<polygon fill="bisque" stroke="bisque" points="3194.5,-694 2232.5,-694 2232.5,-521 3194.5,-521 3194.5,-694"/>
<text text-anchor="start" x="2240.5" y="-678.8" font-family="Times,serif" font-size="14.00">kernel_gpu_cuda_2.cu:</text>
<text text-anchor="start" x="2240.5" y="-663.8" font-family="Times,serif" font-size="14.00">29 if((knodesD[currKnodeD[bid]].keys[thid] &lt;= startD[bid]) &amp;&amp; (knodesD[currKnodeD[bid]].keys[thid+1] &gt; startD[bid])){ &#160;&#160;&#160;18.45%</text>
<text text-anchor="start" x="2240.5" y="-648.8" font-family="Times,serif" font-size="14.00">37 if((knodesD[lastKnodeD[bid]].keys[thid] &lt;= endD[bid]) &amp;&amp; (knodesD[lastKnodeD[bid]].keys[thid+1] &gt; endD[bid])){ &#160;&#160;&#160;15.95%</text>
<text text-anchor="start" x="2240.5" y="-633.8" font-family="Times,serif" font-size="14.00">62 if(knodesD[lastKnodeD[bid]].keys[thid] == endD[bid]){ &#160;&#160;&#160;14.12%</text>
<text text-anchor="start" x="2240.5" y="-618.8" font-family="Times,serif" font-size="14.00">52 __syncthreads(); &#160;&#160;&#160;14.12%</text>
<text text-anchor="start" x="2240.5" y="-603.8" font-family="Times,serif" font-size="14.00">57 RecstartD[bid] = knodesD[currKnodeD[bid]].indices[thid]; &#160;&#160;&#160;11.16%</text>
<text text-anchor="start" x="2240.5" y="-588.8" font-family="Times,serif" font-size="14.00">22 int thid = threadIdx.x; &#160;&#160;&#160;8.20%</text>
<text text-anchor="start" x="2240.5" y="-573.8" font-family="Times,serif" font-size="14.00">27 for(i = 0; i &lt; height; i++){ &#160;&#160;&#160;7.74%</text>
<text text-anchor="start" x="2240.5" y="-558.8" font-family="Times,serif" font-size="14.00">49 currKnodeD[bid] = offsetD[bid]; &#160;&#160;&#160;4.10%</text>
<text text-anchor="start" x="2240.5" y="-543.8" font-family="Times,serif" font-size="14.00">23 int bid = blockIdx.x; &#160;&#160;&#160;3.87%</text>
<text text-anchor="start" x="2240.5" y="-528.8" font-family="Times,serif" font-size="14.00">63 ReclenD[bid] = knodesD[lastKnodeD[bid]].indices[thid] &#45; RecstartD[bid]+1; &#160;&#160;&#160;2.28%</text>
</g>
<!-- warp_cant_issue_wait&#45;&gt;source_code_for_warp_cant_issue_wait_0 -->
<g id="edge10" class="edge">
<title>warp_cant_issue_wait&#45;&gt;source_code_for_warp_cant_issue_wait_0</title>
<path fill="none" stroke="black" d="M3347.69,-737.08C3293.55,-726.1 3221.61,-711.52 3145.66,-696.12"/>
<polygon fill="black" stroke="black" points="3145.9,-692.59 3135.41,-694.04 3144.51,-699.45 3145.9,-692.59"/>
</g>
<!-- inst_executed_op_integer -->
<g id="node12" class="node">
<title>inst_executed_op_integer</title>
<polygon fill="lightgrey" stroke="lightgrey" points="3354.5,-626.5 3212.5,-626.5 3212.5,-588.5 3354.5,-588.5 3354.5,-626.5"/>
<text text-anchor="middle" x="3283.5" y="-611.3" font-family="Times,serif" font-size="14.00"> integer</text>
<text text-anchor="middle" x="3283.5" y="-596.3" font-family="Times,serif" font-size="14.00">47.97% of all inst</text>
</g>
<!-- warp_cant_issue_wait&#45;&gt;inst_executed_op_integer -->
<g id="edge11" class="edge">
<title>warp_cant_issue_wait&#45;&gt;inst_executed_op_integer</title>
<path fill="none" stroke="black" d="M3408.28,-730.87C3393.98,-719.98 3377.55,-706.85 3363.5,-694 3342.82,-675.08 3321.21,-651.74 3305.67,-634.23"/>
<polygon fill="black" stroke="black" points="3308.21,-631.82 3298.98,-626.63 3302.96,-636.45 3308.21,-631.82"/>
</g>
<!-- inst_executed_op_memory -->
<g id="node13" class="node">
<title>inst_executed_op_memory</title>
<polygon fill="lightgrey" stroke="lightgrey" points="3514.5,-626.5 3372.5,-626.5 3372.5,-588.5 3514.5,-588.5 3514.5,-626.5"/>
<text text-anchor="middle" x="3443.5" y="-611.3" font-family="Times,serif" font-size="14.00"> memory</text>
<text text-anchor="middle" x="3443.5" y="-596.3" font-family="Times,serif" font-size="14.00">14.88% of all inst</text>
</g>
<!-- warp_cant_issue_wait&#45;&gt;inst_executed_op_memory -->
<g id="edge12" class="edge">
<title>warp_cant_issue_wait&#45;&gt;inst_executed_op_memory</title>
<path fill="none" stroke="black" d="M3443.5,-730.72C3443.5,-704.4 3443.5,-663.66 3443.5,-636.55"/>
<polygon fill="black" stroke="black" points="3447,-636.54 3443.5,-626.54 3440,-636.54 3447,-636.54"/>
</g>
<!-- inst_executed_op_uniform -->
<g id="node14" class="node">
<title>inst_executed_op_uniform</title>
<polygon fill="lightgrey" stroke="lightgrey" points="3674.5,-626.5 3532.5,-626.5 3532.5,-588.5 3674.5,-588.5 3674.5,-626.5"/>
<text text-anchor="middle" x="3603.5" y="-611.3" font-family="Times,serif" font-size="14.00"> uniform</text>
<text text-anchor="middle" x="3603.5" y="-596.3" font-family="Times,serif" font-size="14.00">14.25% of all inst</text>
</g>
<!-- warp_cant_issue_wait&#45;&gt;inst_executed_op_uniform -->
<g id="edge13" class="edge">
<title>warp_cant_issue_wait&#45;&gt;inst_executed_op_uniform</title>
<path fill="none" stroke="black" d="M3478.72,-730.87C3493.02,-719.98 3509.45,-706.85 3523.5,-694 3544.18,-675.08 3565.79,-651.74 3581.33,-634.23"/>
<polygon fill="black" stroke="black" points="3584.04,-636.45 3588.02,-626.63 3578.79,-631.82 3584.04,-636.45"/>
</g>
<!-- inst_executed_op_control -->
<g id="node15" class="node">
<title>inst_executed_op_control</title>
<polygon fill="lightgrey" stroke="lightgrey" points="3834.5,-626.5 3692.5,-626.5 3692.5,-588.5 3834.5,-588.5 3834.5,-626.5"/>
<text text-anchor="middle" x="3763.5" y="-611.3" font-family="Times,serif" font-size="14.00"> control</text>
<text text-anchor="middle" x="3763.5" y="-596.3" font-family="Times,serif" font-size="14.00">13.42% of all inst</text>
</g>
<!-- warp_cant_issue_wait&#45;&gt;inst_executed_op_control -->
<g id="edge14" class="edge">
<title>warp_cant_issue_wait&#45;&gt;inst_executed_op_control</title>
<path fill="none" stroke="black" d="M3539.18,-744.3C3585.2,-735.35 3639.74,-720.03 3683.5,-694 3708.61,-679.06 3730.74,-653.95 3745.32,-634.79"/>
<polygon fill="black" stroke="black" points="3748.15,-636.85 3751.29,-626.73 3742.53,-632.69 3748.15,-636.85"/>
</g>
<!-- suggestion_for_warp_cant_issue_wait_5 -->
<g id="node16" class="node">
<title>suggestion_for_warp_cant_issue_wait_5</title>
<polygon fill="mediumseagreen" stroke="mediumseagreen" points="4036.5,-664 3852.5,-664 3852.5,-551 4036.5,-551 4036.5,-664"/>
<text text-anchor="middle" x="3944.5" y="-648.8" font-family="Times,serif" font-size="14.00"> Long&#45;latency</text>
<text text-anchor="middle" x="3944.5" y="-633.8" font-family="Times,serif" font-size="14.00">instructions consuming</text>
<text text-anchor="middle" x="3944.5" y="-618.8" font-family="Times,serif" font-size="14.00">each other&#39;s results</text>
<text text-anchor="middle" x="3944.5" y="-603.8" font-family="Times,serif" font-size="14.00">spaced too close</text>
<text text-anchor="middle" x="3944.5" y="-588.8" font-family="Times,serif" font-size="14.00">together. Try to</text>
<text text-anchor="middle" x="3944.5" y="-573.8" font-family="Times,serif" font-size="14.00">restructure or unroll to</text>
<text text-anchor="middle" x="3944.5" y="-558.8" font-family="Times,serif" font-size="14.00">increase spacing.</text>
</g>
<!-- warp_cant_issue_wait&#45;&gt;suggestion_for_warp_cant_issue_wait_5 -->
<g id="edge15" class="edge">
<title>warp_cant_issue_wait&#45;&gt;suggestion_for_warp_cant_issue_wait_5</title>
<path fill="none" stroke="black" d="M3539.39,-755.95C3623.13,-752.17 3746.17,-738.49 3843.5,-694 3856.74,-687.95 3869.62,-679.65 3881.5,-670.59"/>
<polygon fill="black" stroke="black" points="3883.88,-673.17 3889.55,-664.22 3879.54,-667.68 3883.88,-673.17"/>
</g>
<!-- source_code_for_warp_cant_issue_no_inst_0 -->
<g id="node17" class="node">
<title>source_code_for_warp_cant_issue_no_inst_0</title>
<polygon fill="bisque" stroke="bisque" points="4574,-649 4055,-649 4055,-566 4574,-566 4574,-649"/>
<text text-anchor="start" x="4063" y="-633.8" font-family="Times,serif" font-size="14.00">kernel_gpu_cuda_2.cu:</text>
<text text-anchor="start" x="4063" y="-618.8" font-family="Times,serif" font-size="14.00">42 offset_2D[bid] = knodesD[lastKnodeD[bid]].indices[thid]; &#160;&#160;&#160;33.33%</text>
<text text-anchor="start" x="4063" y="-603.8" font-family="Times,serif" font-size="14.00">34 offsetD[bid] = knodesD[currKnodeD[bid]].indices[thid]; &#160;&#160;&#160;25.93%</text>
<text text-anchor="start" x="4063" y="-588.8" font-family="Times,serif" font-size="14.00">6 findRangeK(	long height, &#160;&#160;&#160;25.93%</text>
<text text-anchor="start" x="4063" y="-573.8" font-family="Times,serif" font-size="14.00">56 if(knodesD[currKnodeD[bid]].keys[thid] == startD[bid]){ &#160;&#160;&#160;14.81%</text>
</g>
<!-- warp_cant_issue_no_inst&#45;&gt;source_code_for_warp_cant_issue_no_inst_0 -->
<g id="edge16" class="edge">
<title>warp_cant_issue_no_inst&#45;&gt;source_code_for_warp_cant_issue_no_inst_0</title>
<path fill="none" stroke="black" d="M4129.37,-738.35C4158.82,-717.7 4208.05,-683.17 4248.34,-654.91"/>
<polygon fill="black" stroke="black" points="4250.35,-657.77 4256.53,-649.16 4246.33,-652.04 4250.35,-657.77"/>
</g>
<!-- l1_latency -->
<g id="node18" class="node">
<title>l1_latency</title>
<polygon fill="lightsalmon" stroke="lightsalmon" points="1236,-470 949,-470 949,-417 1236,-417 1236,-470"/>
<text text-anchor="middle" x="1092.5" y="-454.8" font-family="Times,serif" font-size="14.00"> L1 latency contribution</text>
<text text-anchor="middle" x="1092.5" y="-439.8" font-family="Times,serif" font-size="14.00">23.58% of average latency (weighted)</text>
<text text-anchor="middle" x="1092.5" y="-424.8" font-family="Times,serif" font-size="14.00">avg cycles spent at this level: 29</text>
</g>
<!-- avg_latency&#45;&gt;l1_latency -->
<g id="edge17" class="edge">
<title>avg_latency&#45;&gt;l1_latency</title>
<path fill="none" stroke="firebrick" d="M1092.5,-573.33C1092.5,-546.24 1092.5,-508.03 1092.5,-480.27"/>
<polygon fill="firebrick" stroke="firebrick" points="1096,-480.18 1092.5,-470.18 1089,-480.18 1096,-480.18"/>
<text text-anchor="middle" x="1099" y="-491.8" font-family="Times,serif" font-size="14.00">=</text>
</g>
<!-- l1_hit_rate -->
<g id="node19" class="node">
<title>l1_hit_rate</title>
<polygon fill="lightgrey" stroke="lightgrey" points="791,-358.5 694,-358.5 694,-320.5 791,-320.5 791,-358.5"/>
<text text-anchor="middle" x="742.5" y="-343.3" font-family="Times,serif" font-size="14.00"> L1 hit rate</text>
<text text-anchor="middle" x="742.5" y="-328.3" font-family="Times,serif" font-size="14.00">73.28%</text>
</g>
<!-- l1_latency&#45;&gt;l1_hit_rate -->
<g id="edge18" class="edge">
<title>l1_latency&#45;&gt;l1_hit_rate</title>
<path fill="none" stroke="black" d="M976.73,-416.95C922.3,-403.75 856.91,-386.18 799.5,-366 796.38,-364.9 793.2,-363.71 790,-362.45"/>
<polygon fill="black" stroke="black" points="791.05,-359.1 780.47,-358.53 788.39,-365.57 791.05,-359.1"/>
</g>
<!-- l1_conflict_rate -->
<g id="node20" class="node">
<title>l1_conflict_rate</title>
<polygon fill="lightgrey" stroke="lightgrey" points="918,-358.5 809,-358.5 809,-320.5 918,-320.5 918,-358.5"/>
<text text-anchor="middle" x="863.5" y="-343.3" font-family="Times,serif" font-size="14.00"> Set conflicts</text>
<text text-anchor="middle" x="863.5" y="-328.3" font-family="Times,serif" font-size="14.00">0.70%</text>
</g>
<!-- l1_latency&#45;&gt;l1_conflict_rate -->
<g id="edge19" class="edge">
<title>l1_latency&#45;&gt;l1_conflict_rate</title>
<path fill="none" stroke="black" d="M1035.01,-416.89C997.55,-400.21 949.16,-378.65 913.34,-362.7"/>
<polygon fill="black" stroke="black" points="914.61,-359.43 904.05,-358.56 911.76,-365.83 914.61,-359.43"/>
</g>
<!-- l1_lines_per_load -->
<g id="node21" class="node">
<title>l1_lines_per_load</title>
<polygon fill="lightgrey" stroke="lightgrey" points="1083,-358.5 936,-358.5 936,-320.5 1083,-320.5 1083,-358.5"/>
<text text-anchor="middle" x="1009.5" y="-343.3" font-family="Times,serif" font-size="14.00"> Lines per request</text>
<text text-anchor="middle" x="1009.5" y="-328.3" font-family="Times,serif" font-size="14.00">1.30</text>
</g>
<!-- l1_latency&#45;&gt;l1_lines_per_load -->
<g id="edge20" class="edge">
<title>l1_latency&#45;&gt;l1_lines_per_load</title>
<path fill="none" stroke="black" d="M1071.56,-416.76C1059.08,-401.42 1043.28,-382.01 1030.74,-366.61"/>
<polygon fill="black" stroke="black" points="1033.19,-364.06 1024.16,-358.52 1027.76,-368.48 1033.19,-364.06"/>
</g>
<!-- bytes_per_load -->
<g id="node22" class="node">
<title>bytes_per_load</title>
<polygon fill="lightgrey" stroke="lightgrey" points="1250,-358.5 1101,-358.5 1101,-320.5 1250,-320.5 1250,-358.5"/>
<text text-anchor="middle" x="1175.5" y="-343.3" font-family="Times,serif" font-size="14.00"> Bytes per request</text>
<text text-anchor="middle" x="1175.5" y="-328.3" font-family="Times,serif" font-size="14.00">5.64</text>
</g>
<!-- l1_latency&#45;&gt;bytes_per_load -->
<g id="edge21" class="edge">
<title>l1_latency&#45;&gt;bytes_per_load</title>
<path fill="none" stroke="black" d="M1113.44,-416.76C1125.92,-401.42 1141.72,-382.01 1154.26,-366.61"/>
<polygon fill="black" stroke="black" points="1157.24,-368.48 1160.84,-358.52 1151.81,-364.06 1157.24,-368.48"/>
</g>
<!-- within_load_coalescing_ratio -->
<g id="node23" class="node">
<title>within_load_coalescing_ratio</title>
<polygon fill="lightgrey" stroke="lightgrey" points="1432.5,-366 1268.5,-366 1268.5,-313 1432.5,-313 1432.5,-366"/>
<text text-anchor="middle" x="1350.5" y="-350.8" font-family="Times,serif" font-size="14.00"> Intra&#45;req coalescing</text>
<text text-anchor="middle" x="1350.5" y="-335.8" font-family="Times,serif" font-size="14.00">ratio</text>
<text text-anchor="middle" x="1350.5" y="-320.8" font-family="Times,serif" font-size="14.00">34.68</text>
</g>
<!-- l1_latency&#45;&gt;within_load_coalescing_ratio -->
<g id="edge22" class="edge">
<title>l1_latency&#45;&gt;within_load_coalescing_ratio</title>
<path fill="none" stroke="black" d="M1157.27,-416.89C1193.46,-402.59 1238.71,-384.7 1276.32,-369.83"/>
<polygon fill="black" stroke="black" points="1277.69,-373.05 1285.7,-366.12 1275.12,-366.54 1277.69,-373.05"/>
</g>
<!-- tlb_latency -->
<g id="node24" class="node">
<title>tlb_latency</title>
<polygon fill="lightsalmon" stroke="lightsalmon" points="1728.5,-366 1450.5,-366 1450.5,-313 1728.5,-313 1728.5,-366"/>
<text text-anchor="middle" x="1589.5" y="-350.8" font-family="Times,serif" font-size="14.00"> TLB latency contribution</text>
<text text-anchor="middle" x="1589.5" y="-335.8" font-family="Times,serif" font-size="14.00">2.44% of average latency (weighted)</text>
<text text-anchor="middle" x="1589.5" y="-320.8" font-family="Times,serif" font-size="14.00">avg cycles spent at this level: 12</text>
</g>
<!-- l1_latency&#45;&gt;tlb_latency -->
<g id="edge23" class="edge">
<title>l1_latency&#45;&gt;tlb_latency</title>
<path fill="none" stroke="firebrick" d="M1216.95,-416.96C1289.46,-402.08 1380.92,-383.31 1455.07,-368.09"/>
<polygon fill="firebrick" stroke="firebrick" points="1455.86,-371.5 1464.95,-366.06 1454.45,-364.64 1455.86,-371.5"/>
<text text-anchor="middle" x="1378" y="-387.8" font-family="Times,serif" font-size="14.00">+</text>
</g>
<!-- l1_miss_rate -->
<g id="node25" class="node">
<title>l1_miss_rate</title>
<polygon fill="lightgrey" stroke="lightgrey" points="1433.5,-247 1323.5,-247 1323.5,-209 1433.5,-209 1433.5,-247"/>
<text text-anchor="middle" x="1378.5" y="-231.8" font-family="Times,serif" font-size="14.00"> L1 miss rate</text>
<text text-anchor="middle" x="1378.5" y="-216.8" font-family="Times,serif" font-size="14.00">26.72%</text>
</g>
<!-- tlb_latency&#45;&gt;l1_miss_rate -->
<g id="edge24" class="edge">
<title>tlb_latency&#45;&gt;l1_miss_rate</title>
<path fill="none" stroke="black" d="M1540.3,-312.97C1504.52,-294.4 1456.54,-269.5 1422.13,-251.64"/>
<polygon fill="black" stroke="black" points="1423.74,-248.54 1413.25,-247.04 1420.52,-254.75 1423.74,-248.54"/>
</g>
<!-- utlb_miss_rate -->
<g id="node26" class="node">
<title>utlb_miss_rate</title>
<polygon fill="lightgrey" stroke="lightgrey" points="1575.5,-247 1451.5,-247 1451.5,-209 1575.5,-209 1575.5,-247"/>
<text text-anchor="middle" x="1513.5" y="-231.8" font-family="Times,serif" font-size="14.00"> Utlb miss rate</text>
<text text-anchor="middle" x="1513.5" y="-216.8" font-family="Times,serif" font-size="14.00">50.00%</text>
</g>
<!-- tlb_latency&#45;&gt;utlb_miss_rate -->
<g id="edge25" class="edge">
<title>tlb_latency&#45;&gt;utlb_miss_rate</title>
<path fill="none" stroke="black" d="M1571.68,-312.83C1559.8,-295.71 1544.21,-273.25 1532.16,-255.89"/>
<polygon fill="black" stroke="black" points="1534.8,-253.55 1526.22,-247.33 1529.05,-257.54 1534.8,-253.55"/>
</g>
<!-- utlb_arb_stall_rate -->
<g id="node27" class="node">
<title>utlb_arb_stall_rate</title>
<polygon fill="lightgrey" stroke="lightgrey" points="1737.5,-247 1593.5,-247 1593.5,-209 1737.5,-209 1737.5,-247"/>
<text text-anchor="middle" x="1665.5" y="-231.8" font-family="Times,serif" font-size="14.00"> Utlb&#45;L1 stall rate</text>
<text text-anchor="middle" x="1665.5" y="-216.8" font-family="Times,serif" font-size="14.00">100.00%</text>
</g>
<!-- tlb_latency&#45;&gt;utlb_arb_stall_rate -->
<g id="edge26" class="edge">
<title>tlb_latency&#45;&gt;utlb_arb_stall_rate</title>
<path fill="none" stroke="black" d="M1607.32,-312.83C1619.2,-295.71 1634.79,-273.25 1646.84,-255.89"/>
<polygon fill="black" stroke="black" points="1649.95,-257.54 1652.78,-247.33 1644.2,-253.55 1649.95,-257.54"/>
</g>
<!-- l2_latency -->
<g id="node28" class="node">
<title>l2_latency</title>
<polygon fill="lightsalmon" stroke="lightsalmon" points="2043,-262 1756,-262 1756,-194 2043,-194 2043,-262"/>
<text text-anchor="middle" x="1899.5" y="-246.8" font-family="Times,serif" font-size="14.00"> L2 latency contribution</text>
<text text-anchor="middle" x="1899.5" y="-231.8" font-family="Times,serif" font-size="14.00">43.90% of average latency (weighted)</text>
<text text-anchor="middle" x="1899.5" y="-216.8" font-family="Times,serif" font-size="14.00">avg cycles spent at this level: 200</text>
<text text-anchor="middle" x="1899.5" y="-201.8" font-family="Times,serif" font-size="14.00">utilized 0.12 of elapased clocks</text>
</g>
<!-- tlb_latency&#45;&gt;l2_latency -->
<g id="edge27" class="edge">
<title>tlb_latency&#45;&gt;l2_latency</title>
<path fill="none" stroke="firebrick" d="M1661.79,-312.97C1701.79,-298.84 1752.19,-281.03 1796.28,-265.46"/>
<polygon fill="firebrick" stroke="firebrick" points="1797.61,-268.7 1805.87,-262.07 1795.28,-262.1 1797.61,-268.7"/>
<text text-anchor="middle" x="1761" y="-283.8" font-family="Times,serif" font-size="14.00">+</text>
</g>
<!-- fb_latency -->
<g id="node29" class="node">
<title>fb_latency</title>
<polygon fill="lightsalmon" stroke="lightsalmon" points="1793,-143 1506,-143 1506,-75 1793,-75 1793,-143"/>
<text text-anchor="middle" x="1649.5" y="-127.8" font-family="Times,serif" font-size="14.00"> FB/DRAM latency</text>
<text text-anchor="middle" x="1649.5" y="-112.8" font-family="Times,serif" font-size="14.00">contribution</text>
<text text-anchor="middle" x="1649.5" y="-97.8" font-family="Times,serif" font-size="14.00">30.08% of average latency (weighted)</text>
<text text-anchor="middle" x="1649.5" y="-82.8" font-family="Times,serif" font-size="14.00">avg cycles spent at this level: 250</text>
</g>
<!-- l2_latency&#45;&gt;fb_latency -->
<g id="edge28" class="edge">
<title>l2_latency&#45;&gt;fb_latency</title>
<path fill="none" stroke="firebrick" d="M1828.86,-193.94C1797.98,-179.49 1761.6,-162.46 1729.7,-147.53"/>
<polygon fill="firebrick" stroke="firebrick" points="1730.94,-144.25 1720.4,-143.18 1727.97,-150.59 1730.94,-144.25"/>
<text text-anchor="middle" x="1796" y="-164.8" font-family="Times,serif" font-size="14.00">+</text>
</g>
<!-- across_load_coalescing_ratio -->
<g id="node30" class="node">
<title>across_load_coalescing_ratio</title>
<polygon fill="lightgrey" stroke="lightgrey" points="1987.5,-135.5 1811.5,-135.5 1811.5,-82.5 1987.5,-82.5 1987.5,-135.5"/>
<text text-anchor="middle" x="1899.5" y="-120.3" font-family="Times,serif" font-size="14.00"> Across&#45;req coalescing</text>
<text text-anchor="middle" x="1899.5" y="-105.3" font-family="Times,serif" font-size="14.00">ratio</text>
<text text-anchor="middle" x="1899.5" y="-90.3" font-family="Times,serif" font-size="14.00">100.00%</text>
</g>
<!-- l2_latency&#45;&gt;across_load_coalescing_ratio -->
<g id="edge29" class="edge">
<title>l2_latency&#45;&gt;across_load_coalescing_ratio</title>
<path fill="none" stroke="black" d="M1899.5,-193.79C1899.5,-178.85 1899.5,-161.2 1899.5,-145.96"/>
<polygon fill="black" stroke="black" points="1903,-145.86 1899.5,-135.86 1896,-145.86 1903,-145.86"/>
</g>
<!-- l2_bank_conflict_rate -->
<g id="node31" class="node">
<title>l2_bank_conflict_rate</title>
<polygon fill="lightgrey" stroke="lightgrey" points="2173.5,-128 2005.5,-128 2005.5,-90 2173.5,-90 2173.5,-128"/>
<text text-anchor="middle" x="2089.5" y="-112.8" font-family="Times,serif" font-size="14.00"> L2 bank conflict rate</text>
<text text-anchor="middle" x="2089.5" y="-97.8" font-family="Times,serif" font-size="14.00">0.00%</text>
</g>
<!-- l2_latency&#45;&gt;l2_bank_conflict_rate -->
<g id="edge30" class="edge">
<title>l2_latency&#45;&gt;l2_bank_conflict_rate</title>
<path fill="none" stroke="black" d="M1953.18,-193.94C1984.47,-174.67 2023.19,-150.83 2051.36,-133.49"/>
<polygon fill="black" stroke="black" points="2053.43,-136.32 2060.11,-128.1 2049.76,-130.36 2053.43,-136.32"/>
</g>
<!-- l2_miss_rate -->
<g id="node32" class="node">
<title>l2_miss_rate</title>
<polygon fill="lightgrey" stroke="lightgrey" points="1704.5,-38 1594.5,-38 1594.5,0 1704.5,0 1704.5,-38"/>
<text text-anchor="middle" x="1649.5" y="-22.8" font-family="Times,serif" font-size="14.00"> L2 miss rate</text>
<text text-anchor="middle" x="1649.5" y="-7.8" font-family="Times,serif" font-size="14.00">54.53%</text>
</g>
<!-- fb_latency&#45;&gt;l2_miss_rate -->
<g id="edge31" class="edge">
<title>fb_latency&#45;&gt;l2_miss_rate</title>
<path fill="none" stroke="black" d="M1649.5,-74.98C1649.5,-66.2 1649.5,-56.8 1649.5,-48.3"/>
<polygon fill="black" stroke="black" points="1653,-48.13 1649.5,-38.13 1646,-48.13 1653,-48.13"/>
</g>
</g>
</svg>
